<svg width="93" height="46" viewBox="0 0 93 46" fill="none" xmlns="http://www.w3.org/2000/svg">
<path d="M9.5214 45.1074C11.5019 45.1074 13.1581 44.8913 14.5264 44.4231C15.8585 43.9551 16.9386 43.2706 17.7308 42.3702C19.2789 40.6415 19.2789 38.7387 19.2789 37.9823C19.2789 36.4399 18.739 34.9992 17.6948 33.7807C16.1105 31.9439 13.482 30.8335 9.91737 30.4374C6.71299 30.0771 5.12845 29.1766 5.12845 27.6701C5.12845 26.0856 7.54088 25.5512 9.62922 25.5512C11.6457 25.5512 13.0858 26.1573 13.8061 27.1658C14.382 27.9222 14.346 28.9967 14.346 28.9967V28.9605H19.2787C19.2787 28.6063 19.2068 26.4096 17.9826 24.5068C16.8301 22.7419 14.4539 20.6169 9.6288 20.6169C5.95614 20.6169 3.2917 21.5895 1.63549 23.4622C0.879272 24.3266 0.0152275 25.8031 0.0152275 27.9941C0.0152275 29.5727 0.555176 30.9775 1.63549 32.1598C2.39151 32.9881 3.39973 33.6724 4.62402 34.1767C5.92041 34.7109 7.54067 35.1072 9.377 35.3233C12.3655 35.6475 14.2019 36.5479 14.2019 37.9823C14.2019 39.3509 12.7617 40.1735 9.52098 40.1735C7.57661 40.1735 6.2445 39.6393 5.52443 38.5588C4.94833 37.6945 4.94833 36.3677 4.94833 36.3677V36.4037L0.0156478 36.3318C0.0156478 36.656 -0.344598 39.9934 2.39193 42.5144C3.25618 43.2706 4.19232 43.9549 5.34452 44.4231C6.56881 44.8913 7.97301 45.1074 9.52119 45.1074H9.5214Z" fill="black"/>
<path d="M33.6956 26.6422H29.5551V20.0769L24.5139 24.9727V26.6422H20.3373V31.6843H24.5139V45.1076H29.5551V31.6843H33.6956V26.6422Z" fill="black"/>
<path d="M52.8214 35.7796C52.7853 30.6656 48.6086 26.5236 43.4958 26.5598C38.3828 26.5958 34.2421 30.7734 34.278 35.8875C34.3142 41.0015 38.4908 45.1434 43.6036 45.1075C47.6361 45.0716 49.6885 43.3788 51.6329 40.3893L46.9522 38.9129C46.916 38.9488 46.844 39.0209 46.808 39.0569C45.944 39.9214 44.7916 40.3893 43.5677 40.4253C42.3793 40.4253 41.2271 39.9575 40.3269 39.0928C39.787 38.553 39.535 38.2286 39.283 37.5083L52.8214 37.5443C52.8574 37.2922 52.8214 36.0317 52.8214 35.7796ZM43.5315 31.2776C44.7558 31.2776 45.9078 31.7457 46.7721 32.5743C47.2042 33.0424 47.564 33.547 47.7803 34.1228H39.3189C39.535 33.547 39.895 33.0424 40.291 32.6104C41.155 31.746 42.3075 31.2778 43.5315 31.2778V31.2776Z" fill="black"/>
<path d="M73.7846 45.1074L73.7487 19.9686H68.7077V28.6845C67.0877 27.3519 65.0351 26.5595 62.7668 26.5595C57.6538 26.5955 53.5131 30.7732 53.5492 35.8872C53.5852 41.0012 57.7619 45.1432 62.8747 45.1072C65.107 45.1072 67.1594 44.2789 68.7437 42.9822V45.1072H73.7844L73.7846 45.1074ZM66.0793 39.0568C65.2152 39.9213 64.0628 40.3892 62.8389 40.4252C61.6146 40.4252 60.4624 39.9574 59.5984 39.0928C58.7341 38.2285 58.2661 37.076 58.2661 35.8517C58.2301 34.6271 58.7341 33.5108 59.5625 32.6103C60.4267 31.7459 61.5789 31.2777 62.8032 31.2777C64.0273 31.2777 65.1795 31.7459 66.0435 32.5744C66.9076 33.4389 67.3756 34.5913 67.4116 35.8159C67.4116 37.0405 66.9439 38.1928 66.0795 39.057L66.0793 39.0568Z" fill="black"/>
<path d="M80.4795 26.5955H75.4386V45.1075H80.4795V26.5955Z" fill="black"/>
<path fill-rule="evenodd" clip-rule="evenodd" d="M75.5564 23.7323C74.7716 22.4047 75.2109 20.6921 76.5382 19.9069C77.8654 19.1219 79.5778 19.5613 80.3626 20.8889C81.1476 22.2165 80.7081 23.929 79.3808 24.7142C78.0536 25.4994 76.3414 25.0599 75.5564 23.7323Z" fill="black"/>
<path fill-rule="evenodd" clip-rule="evenodd" d="M89.9199 8.56735C91.6101 8.56735 92.9824 9.97483 92.9994 11.7178L93 11.7181V11.7511L92.9994 37.6116C92.9994 40.9155 89.864 42.8839 87.2161 43.9105C85.8615 44.4358 84.4145 44.8271 82.9348 45.1075V39.9432C83.8201 39.7399 84.6799 39.4858 85.4906 39.1715C85.9975 38.9751 87.9072 38.0674 88.0957 37.6118V14.647C85.0578 16.1022 80.8864 17.0017 76.2505 17.0017C71.6146 17.0017 67.3816 16.1184 64.3519 14.6213C61.0375 12.9838 59.4759 11.1958 59.4496 8.90624C59.4496 2.5489 71.8212 0.810516 76.2505 0.810516C77.9265 0.810516 79.5448 0.929086 81.0722 1.1492V6.1331C79.6018 5.96092 77.9693 5.86506 76.2505 5.86506C69.7703 5.86506 64.5173 7.22629 64.5173 8.90582C64.5173 10.5853 69.7703 11.9474 76.2505 11.9474C80.3137 11.9474 83.8932 11.4122 85.9984 10.5988C87.6792 9.95003 88.1773 8.56756 89.9201 8.56756L89.9199 8.56735Z" fill="#EC1C2C"/>
</svg>
