<svg width="160" height="78" viewBox="0 0 160 78" fill="none" xmlns="http://www.w3.org/2000/svg">
<path d="M16.3809 77.0962C19.7882 77.0962 22.6376 76.7247 24.9917 75.9191C27.2838 75.1139 29.1417 73.9368 30.505 72.3882C33.1685 69.4149 33.1686 66.142 33.1686 64.8409C33.1686 62.1879 32.2394 59.71 30.4432 57.6139C27.7175 54.4545 23.1952 52.5448 17.0625 51.8632C11.5492 51.2434 8.82349 49.6948 8.82349 47.1035C8.82349 44.3781 12.9739 43.4591 16.5666 43.4591C20.0357 43.4591 22.5135 44.5017 23.7528 46.2361C24.7438 47.5372 24.682 49.3854 24.682 49.3854V49.3233H33.1686C33.1686 48.7139 33.0449 44.9354 30.9386 41.6629C28.956 38.6271 24.8677 34.9722 16.5666 34.9722C10.2482 34.9722 5.66409 36.6448 2.81476 39.866C1.5137 41.3528 0.0272809 43.8924 0.0272809 47.6608C0.0272809 50.376 0.956416 52.792 2.81476 54.826C4.11547 56.2507 5.8502 57.4278 7.95612 58.2952C10.1864 59.2142 12.9739 59.8954 16.1333 60.2673C21.2746 60.8246 24.4341 62.3736 24.4341 64.8409C24.4341 67.1951 21.9563 68.6097 16.3809 68.6097C13.0357 68.6097 10.7437 67.6906 9.5048 65.8323C8.51346 64.3458 8.5134 62.0639 8.5134 62.0639V62.1257L0.0269279 62.0021C0.0269279 62.5594 -0.592914 68.2999 4.11512 72.6364C5.60194 73.9371 7.21276 75.1142 9.19471 75.9194C11.301 76.725 13.717 77.0966 16.3805 77.0966L16.3809 77.0962Z" fill="#FEFEFE"/>
<path d="M57.9712 45.3356H50.8476V34.0435L42.1749 42.4642V45.3356H34.9891V54.0082H42.1749V77.097H50.8476V54.0082H57.9712V45.3356Z" fill="#FEFEFE"/>
<path d="M90.8761 61.0524C90.8139 52.2561 83.6281 45.1321 74.8319 45.1943C66.0353 45.2561 58.9116 52.4419 58.9734 61.2381C59.0355 70.0344 66.2213 77.1585 75.0176 77.0967C81.9555 77.0349 85.4865 74.1233 88.8316 68.9813L80.7788 66.4417C80.7166 66.5035 80.5927 66.6274 80.5309 66.6892C79.0444 68.176 77.0617 68.9813 74.9558 69.0431C72.9114 69.0431 70.929 68.2382 69.38 66.751C68.4508 65.8222 68.0175 65.2646 67.5842 64.0257L90.8761 64.0875C90.9379 63.6542 90.8761 61.4857 90.8761 61.052V61.0524ZM74.8936 53.3089C76.9999 53.3089 78.9818 54.1145 80.469 55.5391C81.2124 56.3447 81.8315 57.2121 82.2034 58.2027H67.646C68.0176 57.2121 68.6374 56.3443 69.3183 55.6013C70.8047 54.1145 72.7874 53.3089 74.8936 53.3089Z" fill="#FEFEFE"/>
<path d="M126.941 77.0963L126.88 33.8569H118.207V48.8484C115.42 46.556 111.888 45.1935 107.986 45.1935C99.1891 45.2553 92.0653 52.4411 92.1275 61.2374C92.1893 70.0336 99.3752 77.1577 108.171 77.0959C112.012 77.0959 115.543 75.6712 118.269 73.441V77.0959H126.941L126.941 77.0963ZM113.685 66.6889C112.198 68.1757 110.216 68.9809 108.11 69.0427C106.003 69.0427 104.021 68.2378 102.534 66.7507C101.047 65.2642 100.242 63.2819 100.242 61.1756C100.18 59.0693 101.047 57.1492 102.472 55.6002C103.959 54.1134 105.941 53.3078 108.048 53.3078C110.154 53.3078 112.136 54.1134 113.623 55.538C115.109 57.0249 115.915 59.0071 115.977 61.1138C115.977 63.2201 115.172 65.202 113.685 66.6889Z" fill="#FEFEFE"/>
<path d="M138.46 45.2554H129.788V77.0967H138.46V45.2554Z" fill="#FEFEFE"/>
<path fill-rule="evenodd" clip-rule="evenodd" d="M129.99 40.3305C128.639 38.0472 129.396 35.1017 131.679 33.7512C133.962 32.4009 136.908 33.157 138.258 35.44C139.608 37.7234 138.852 40.6688 136.569 42.0194C134.286 43.37 131.34 42.6135 129.99 40.3305Z" fill="#FEFEFE"/>
<path fill-rule="evenodd" clip-rule="evenodd" d="M154.701 14.2465C157.609 14.2465 159.97 16.6675 159.999 19.6657L160 19.6661V19.7228L159.999 64.2036C159.999 69.8867 154.605 73.2723 150.049 75.0378C147.718 75.9417 145.229 76.6143 142.683 77.0967V68.2141C144.206 67.8646 145.685 67.427 147.081 66.8867C147.953 66.5491 151.238 64.9875 151.563 64.2039V24.7037C146.336 27.2068 139.16 28.754 131.184 28.754C123.208 28.754 115.925 27.2346 110.713 24.6596C105.011 21.8432 102.324 18.7676 102.279 14.8297C102.279 3.89505 123.563 0.904785 131.184 0.904785C134.067 0.904785 136.852 1.10863 139.479 1.48702V10.0595C136.949 9.76355 134.141 9.59875 131.184 9.59875C120.035 9.59875 110.997 11.9403 110.997 14.8287C110.997 17.7174 120.035 20.06 131.184 20.06C138.174 20.06 144.333 19.1392 147.954 17.7402C150.846 16.6241 151.703 14.2465 154.701 14.2465H154.701Z" fill="#FEFEFE"/>
</svg>
