<svg width="224" height="31" viewBox="0 0 224 31" fill="none" xmlns="http://www.w3.org/2000/svg">
<path d="M1.66416 11V13.624H0.368164V9.8H1.56816C2.50683 9.53333 2.97616 8.09866 2.97616 5.496V0.199995H10.6722V9.8H12.4642V13.624H11.1682V11H1.66416ZM3.34416 9.8H9.37616V1.39999H4.27216V5.43199C4.27216 7.43733 3.96283 8.89333 3.34416 9.8Z" fill="white"/>
<path d="M19.2298 5.784L14.7658 11H13.7738V3.79999H14.9578V9.04799L19.4058 3.79999H20.4138V11H19.2298V5.784Z" fill="white"/>
<path d="M21.9824 9.16L23.1664 8.856C23.4651 9.63466 24.1104 10.024 25.1024 10.024C25.6677 10.024 26.1317 9.90666 26.4944 9.672C26.8677 9.42666 27.0544 9.128 27.0544 8.776C27.0544 8.488 26.9477 8.25333 26.7344 8.07199C26.5211 7.87999 26.2544 7.784 25.9344 7.784H24.1744V6.792H25.8544C26.1531 6.792 26.4037 6.70666 26.6064 6.536C26.8091 6.36533 26.9104 6.15733 26.9104 5.91199C26.9104 5.58133 26.7397 5.30933 26.3984 5.09599C26.0677 4.88266 25.6464 4.77599 25.1344 4.77599C24.1424 4.77599 23.5024 5.16533 23.2144 5.94399L22.0304 5.64C22.2544 5.01066 22.6437 4.51999 23.1984 4.16799C23.7637 3.81599 24.4304 3.64 25.1984 3.64C26.0304 3.64 26.7291 3.84266 27.2944 4.24799C27.8491 4.64266 28.1264 5.14399 28.1264 5.752C28.1264 6.38133 27.8277 6.88266 27.2304 7.25599C27.9237 7.63999 28.2704 8.19466 28.2704 8.92C28.2704 9.54933 27.9717 10.0827 27.3744 10.52C26.7877 10.9467 26.0411 11.16 25.1344 11.16C24.3557 11.16 23.6891 10.984 23.1344 10.632C22.5797 10.28 22.1957 9.78933 21.9824 9.16Z" fill="white"/>
<path d="M33.0668 3.64C34.1228 3.64 34.9921 4.024 35.6748 4.792V3.79999H36.8428V11H35.6748V10.008C34.9921 10.776 34.1228 11.16 33.0668 11.16C32.0535 11.16 31.2055 10.8027 30.5228 10.088C29.8508 9.37333 29.5148 8.47733 29.5148 7.39999C29.5148 6.344 29.8508 5.45333 30.5228 4.72799C31.2161 4.00266 32.0641 3.64 33.0668 3.64ZM34.9388 5.56C34.4801 5.06933 33.8988 4.824 33.1948 4.824C32.4908 4.824 31.9095 5.06933 31.4508 5.56C30.9815 6.06133 30.7468 6.67466 30.7468 7.39999C30.7468 8.12533 30.9815 8.73866 31.4508 9.24C31.9095 9.73066 32.4908 9.976 33.1948 9.976C33.8988 9.976 34.4801 9.73066 34.9388 9.24C35.4081 8.73866 35.6428 8.12533 35.6428 7.39999C35.6428 6.67466 35.4081 6.06133 34.9388 5.56Z" fill="white"/>
<path d="M38.8519 11V3.79999H40.0359V9.04799L44.4839 3.79999H45.4919V11H44.3079V5.784L39.8439 11H38.8519ZM39.7799 0.119995H40.8199C40.8199 0.471995 40.9479 0.770662 41.2039 1.016C41.4599 1.25066 41.7799 1.36799 42.1639 1.36799C42.5372 1.36799 42.8519 1.25066 43.1079 1.016C43.3639 0.770662 43.4919 0.471995 43.4919 0.119995H44.5319C44.5319 0.759995 44.3026 1.29333 43.8439 1.71999C43.4066 2.14666 42.8466 2.35999 42.1639 2.35999C41.4919 2.35999 40.9266 2.14666 40.4679 1.71999C40.0092 1.29333 39.7799 0.759995 39.7799 0.119995Z" fill="white"/>
<path d="M48.6765 7.896V11H47.4925V3.79999H48.6765V6.776H52.9165V3.79999H54.1005V11H52.9165V7.896H48.6765Z" fill="white"/>
<path d="M65.7923 5.784L61.3283 11H60.3363V3.79999H61.5203V9.04799L65.9683 3.79999H66.9763V11H65.7923V5.784Z" fill="white"/>
<path d="M2.17616 28.6H1.00816V17.8H2.17616V18.792C2.85883 18.024 3.72816 17.64 4.78416 17.64C5.7975 17.64 6.64016 18.0027 7.31216 18.728C7.99483 19.4427 8.33616 20.3333 8.33616 21.4C8.33616 22.4773 7.99483 23.3733 7.31216 24.088C6.64016 24.8027 5.7975 25.16 4.78416 25.16C3.72816 25.16 2.85883 24.776 2.17616 24.008V28.6ZM6.40016 19.56C5.9415 19.0693 5.36016 18.824 4.65616 18.824C3.95216 18.824 3.37083 19.0693 2.91216 19.56C2.44283 20.0613 2.20816 20.6747 2.20816 21.4C2.20816 22.1253 2.44283 22.7387 2.91216 23.24C3.37083 23.7307 3.95216 23.976 4.65616 23.976C5.36016 23.976 5.9415 23.7307 6.40016 23.24C6.88016 22.7493 7.12016 22.136 7.12016 21.4C7.12016 20.664 6.88016 20.0507 6.40016 19.56Z" fill="white"/>
<path d="M13.1293 17.64C14.1853 17.64 15.0546 18.024 15.7373 18.792V17.8H16.9053V25H15.7373V24.008C15.0546 24.776 14.1853 25.16 13.1293 25.16C12.116 25.16 11.268 24.8027 10.5853 24.088C9.91329 23.3733 9.57729 22.4773 9.57729 21.4C9.57729 20.344 9.91329 19.4533 10.5853 18.728C11.2786 18.0027 12.1266 17.64 13.1293 17.64ZM15.0013 19.56C14.5426 19.0693 13.9613 18.824 13.2573 18.824C12.5533 18.824 11.972 19.0693 11.5133 19.56C11.044 20.0613 10.8093 20.6747 10.8093 21.4C10.8093 22.1253 11.044 22.7387 11.5133 23.24C11.972 23.7307 12.5533 23.976 13.2573 23.976C13.9613 23.976 14.5426 23.7307 15.0013 23.24C15.4706 22.7387 15.7053 22.1253 15.7053 21.4C15.7053 20.6747 15.4706 20.0613 15.0013 19.56Z" fill="white"/>
<path d="M18.4824 23.16L19.6664 22.856C19.9651 23.6347 20.6104 24.024 21.6024 24.024C22.1677 24.024 22.6317 23.9067 22.9944 23.672C23.3677 23.4267 23.5544 23.128 23.5544 22.776C23.5544 22.488 23.4477 22.2533 23.2344 22.072C23.0211 21.88 22.7544 21.784 22.4344 21.784H20.6744V20.792H22.3544C22.6531 20.792 22.9037 20.7067 23.1064 20.536C23.3091 20.3653 23.4104 20.1573 23.4104 19.912C23.4104 19.5813 23.2397 19.3093 22.8984 19.096C22.5677 18.8827 22.1464 18.776 21.6344 18.776C20.6424 18.776 20.0024 19.1653 19.7144 19.944L18.5304 19.64C18.7544 19.0107 19.1437 18.52 19.6984 18.168C20.2637 17.816 20.9304 17.64 21.6984 17.64C22.5304 17.64 23.2291 17.8427 23.7944 18.248C24.3491 18.6427 24.6264 19.144 24.6264 19.752C24.6264 20.3813 24.3277 20.8827 23.7304 21.256C24.4237 21.64 24.7704 22.1947 24.7704 22.92C24.7704 23.5493 24.4717 24.0827 23.8744 24.52C23.2877 24.9467 22.5411 25.16 21.6344 25.16C20.8557 25.16 20.1891 24.984 19.6344 24.632C19.0797 24.28 18.6957 23.7893 18.4824 23.16Z" fill="white"/>
<path d="M27.5668 28.6H26.3988V17.8H27.5668V18.792C28.2495 18.024 29.1188 17.64 30.1748 17.64C31.1881 17.64 32.0308 18.0027 32.7028 18.728C33.3855 19.4427 33.7268 20.3333 33.7268 21.4C33.7268 22.4773 33.3855 23.3733 32.7028 24.088C32.0308 24.8027 31.1881 25.16 30.1748 25.16C29.1188 25.16 28.2495 24.776 27.5668 24.008V28.6ZM31.7908 19.56C31.3321 19.0693 30.7508 18.824 30.0468 18.824C29.3428 18.824 28.7615 19.0693 28.3028 19.56C27.8335 20.0613 27.5988 20.6747 27.5988 21.4C27.5988 22.1253 27.8335 22.7387 28.3028 23.24C28.7615 23.7307 29.3428 23.976 30.0468 23.976C30.7508 23.976 31.3321 23.7307 31.7908 23.24C32.2708 22.7493 32.5108 22.136 32.5108 21.4C32.5108 20.664 32.2708 20.0507 31.7908 19.56Z" fill="white"/>
<path d="M38.5199 17.64C39.5759 17.64 40.4452 18.024 41.1279 18.792V17.8H42.2959V25H41.1279V24.008C40.4452 24.776 39.5759 25.16 38.5199 25.16C37.5066 25.16 36.6586 24.8027 35.9759 24.088C35.3039 23.3733 34.9679 22.4773 34.9679 21.4C34.9679 20.344 35.3039 19.4533 35.9759 18.728C36.6692 18.0027 37.5172 17.64 38.5199 17.64ZM40.3919 19.56C39.9332 19.0693 39.3519 18.824 38.6479 18.824C37.9439 18.824 37.3626 19.0693 36.9039 19.56C36.4346 20.0613 36.1999 20.6747 36.1999 21.4C36.1999 22.1253 36.4346 22.7387 36.9039 23.24C37.3626 23.7307 37.9439 23.976 38.6479 23.976C39.3519 23.976 39.9332 23.7307 40.3919 23.24C40.8612 22.7387 41.0959 22.1253 41.0959 21.4C41.0959 20.6747 40.8612 20.0613 40.3919 19.56Z" fill="white"/>
<path d="M43.969 19.592C43.969 17.9813 44.2997 16.7493 44.961 15.896C45.633 15.0427 46.6357 14.5307 47.969 14.36C49.281 14.168 50.0757 13.816 50.353 13.304L50.897 13.992C50.7797 14.3547 50.4597 14.6693 49.937 14.936C49.4144 15.2133 48.8544 15.4 48.257 15.496C47.1584 15.656 46.3637 16.072 45.873 16.744C45.3824 17.4053 45.1477 18.3653 45.169 19.624C45.3717 19.0267 45.729 18.5467 46.241 18.184C46.7637 17.8213 47.3717 17.64 48.065 17.64C49.089 17.64 49.953 18.0027 50.657 18.728C51.361 19.4533 51.713 20.3493 51.713 21.416C51.713 22.4827 51.361 23.3733 50.657 24.088C49.953 24.8027 49.073 25.16 48.017 25.16C46.8544 25.16 45.889 24.696 45.121 23.768C44.353 22.8187 43.969 21.4267 43.969 19.592ZM48.033 23.976C48.737 23.976 49.3184 23.7307 49.777 23.24C50.2464 22.7387 50.481 22.1253 50.481 21.4C50.481 20.6747 50.2464 20.0613 49.777 19.56C49.3184 19.0693 48.737 18.824 48.033 18.824C47.3184 18.824 46.7317 19.0693 46.273 19.56C45.8037 20.0613 45.569 20.6747 45.569 21.4C45.569 22.1253 45.8037 22.7387 46.273 23.24C46.7317 23.7307 47.3184 23.976 48.033 23.976Z" fill="white"/>
<path d="M56.7279 25.16C55.6506 25.16 54.7546 24.8027 54.0399 24.088C53.3252 23.3733 52.9679 22.4773 52.9679 21.4C52.9679 20.3227 53.3252 19.4267 54.0399 18.712C54.7546 17.9973 55.6506 17.64 56.7279 17.64C57.7946 17.64 58.6852 17.9973 59.3999 18.712C60.1252 19.4373 60.4879 20.3333 60.4879 21.4C60.4879 22.4667 60.1252 23.3627 59.3999 24.088C58.6852 24.8027 57.7946 25.16 56.7279 25.16ZM56.7279 18.824C56.0026 18.824 55.3999 19.0693 54.9199 19.56C54.4399 20.0507 54.1999 20.664 54.1999 21.4C54.1999 22.136 54.4399 22.7493 54.9199 23.24C55.3999 23.7307 56.0026 23.976 56.7279 23.976C57.4532 23.976 58.0559 23.7307 58.5359 23.24C59.0159 22.7493 59.2559 22.136 59.2559 21.4C59.2559 20.664 59.0159 20.0507 58.5359 19.56C58.0559 19.0693 57.4532 18.824 56.7279 18.824Z" fill="white"/>
<path d="M63.8973 25V18.936H61.2093V17.8H67.7533V18.936H65.0653V25H63.8973Z" fill="white"/>
<path d="M75.0238 25H73.5678L70.3198 21.272L73.2638 17.8H74.7198L71.7758 21.272L75.0238 25ZM70.2078 17.8V25H69.0238V17.8H70.2078Z" fill="white"/>
<path d="M79.0824 17.64C80.1384 17.64 81.0078 18.024 81.6904 18.792V17.8H82.8584V25H81.6904V24.008C81.0078 24.776 80.1384 25.16 79.0824 25.16C78.0691 25.16 77.2211 24.8027 76.5384 24.088C75.8664 23.3733 75.5304 22.4773 75.5304 21.4C75.5304 20.344 75.8664 19.4533 76.5384 18.728C77.2318 18.0027 78.0797 17.64 79.0824 17.64ZM80.9544 19.56C80.4958 19.0693 79.9144 18.824 79.2104 18.824C78.5064 18.824 77.9251 19.0693 77.4664 19.56C76.9971 20.0613 76.7624 20.6747 76.7624 21.4C76.7624 22.1253 76.9971 22.7387 77.4664 23.24C77.9251 23.7307 78.5064 23.976 79.2104 23.976C79.9144 23.976 80.4958 23.7307 80.9544 23.24C81.4238 22.7387 81.6584 22.1253 81.6584 21.4C81.6584 20.6747 81.4238 20.0613 80.9544 19.56Z" fill="white"/>
<g clip-path="url(#clip0_172_586)">
<path d="M99.3299 17.5443C99.7739 18.2411 100.44 18.8507 101.372 19.2862C102.26 19.7216 103.237 19.9393 104.303 19.9393C104.835 19.9393 105.368 19.8958 105.856 19.7652C106.345 19.6345 106.744 19.4603 107.144 19.2426C107.499 19.0249 107.81 18.7636 107.988 18.4588C108.21 18.154 108.298 17.8491 108.298 17.5008C108.298 16.9782 108.032 16.4992 107.455 16.1509C106.878 15.8025 106.167 15.4541 105.279 15.1493C104.391 14.8445 103.459 14.5397 102.482 14.2348C101.461 13.93 100.529 13.5381 99.6851 13.1026C98.7972 12.6236 98.0868 12.1011 97.5096 11.4044C96.9324 10.7512 96.666 9.88024 96.666 8.87869C96.666 8.05132 96.888 7.26749 97.2876 6.52721C97.6872 5.83048 98.2644 5.17729 98.9748 4.65474C99.5963 4.13219 100.44 3.74028 101.417 3.43545C102.393 3.13063 103.459 3 104.613 3C106.478 3 108.121 3.39191 109.586 4.13219C111.007 4.87247 111.983 5.91757 112.516 7.1804L109.497 8.92224C109.142 8.2255 108.565 7.70295 107.721 7.31104C106.922 6.91913 105.945 6.74494 104.88 6.74494C103.77 6.74494 102.882 6.91913 102.171 7.31104C101.461 7.70295 101.106 8.18196 101.061 8.74805C101.061 9.18351 101.372 9.53188 101.949 9.8367C102.527 10.1415 103.281 10.4028 104.125 10.7076C105.013 10.9689 105.945 11.2737 106.966 11.6221C107.988 11.9269 108.92 12.3624 109.808 12.8414C110.696 13.3204 111.406 13.93 111.983 14.6703C112.561 15.4106 112.871 16.325 112.871 17.4137C112.871 18.2846 112.649 19.1555 112.25 19.9393C111.806 20.7232 111.229 21.3764 110.474 21.986C109.719 22.5521 108.831 22.9876 107.81 23.3359C106.789 23.6407 105.679 23.8149 104.436 23.8149C102.571 23.8149 100.884 23.423 99.4187 22.6827C97.9536 21.8989 96.8436 20.8538 96.0889 19.5474L99.3299 17.5443Z" fill="white"/>
<path d="M128.544 23.6842C127.256 23.6842 126.058 23.4665 124.903 22.9874C123.793 22.5084 122.817 21.8117 121.973 20.8972V30.9999H117.444V3.47889H122.017V5.91746C122.905 4.95945 123.882 4.26272 125.036 3.78371C126.146 3.30471 127.345 3.08698 128.588 3.08698C129.965 3.08698 131.252 3.34825 132.451 3.91435C133.65 4.48045 134.715 5.22073 135.648 6.13519C136.58 7.0932 137.29 8.18185 137.823 9.44468C138.356 10.7075 138.622 12.0574 138.622 13.4944C138.622 14.8879 138.356 16.1943 137.823 17.4571C137.29 18.6764 136.58 19.7651 135.692 20.7231C134.804 21.6375 133.738 22.3778 132.495 22.9004C131.252 23.4229 129.965 23.6842 128.544 23.6842ZM122.017 13.3638C122.017 14.2347 122.195 15.0185 122.506 15.8024C122.817 16.5427 123.261 17.1958 123.793 17.7619C124.326 18.328 124.992 18.7635 125.702 19.0683C126.413 19.3731 127.212 19.5473 128.056 19.5473C128.899 19.5473 129.698 19.3731 130.453 19.0683C131.163 18.7635 131.829 18.328 132.362 17.7619C132.895 17.1958 133.339 16.5427 133.65 15.7588C133.96 14.975 134.138 14.1912 134.138 13.3203C134.138 12.4493 134.005 11.6655 133.694 10.8817C133.383 10.1414 132.984 9.48822 132.451 8.92213C131.918 8.35603 131.297 7.96412 130.542 7.6593C129.831 7.35448 129.032 7.18029 128.144 7.18029C127.301 7.18029 126.502 7.35448 125.747 7.6593C124.992 7.96412 124.37 8.39958 123.838 8.96567C123.305 9.53177 122.861 10.185 122.55 10.9252C122.151 11.6655 122.017 12.4929 122.017 13.3638Z" fill="white"/>
<path d="M151.587 3.08698C152.874 3.08698 154.073 3.30471 155.227 3.78371C156.337 4.26272 157.314 4.95945 158.158 5.87392V3.43535H162.731V23.3358H158.158V20.8537C157.27 21.8117 156.293 22.5084 155.139 22.9874C154.029 23.4664 152.83 23.7277 151.587 23.7277C150.255 23.7277 148.967 23.4664 147.724 22.9004C146.481 22.3343 145.415 21.594 144.527 20.636C143.595 19.678 142.885 18.5893 142.352 17.3265C141.819 16.0637 141.553 14.7137 141.553 13.2767C141.553 11.8832 141.819 10.5769 142.352 9.31404C142.885 8.09476 143.595 7.00611 144.527 6.0481C145.415 5.13364 146.481 4.39336 147.724 3.8708C148.923 3.34825 150.21 3.08698 151.587 3.08698ZM158.158 13.4074C158.158 12.5364 157.98 11.7526 157.669 10.9688C157.358 10.2285 156.915 9.57531 156.382 9.00922C155.849 8.44312 155.183 8.00766 154.473 7.70284C153.762 7.39802 152.963 7.22384 152.12 7.22384C151.276 7.22384 150.477 7.39802 149.722 7.70284C149.012 8.00766 148.346 8.44312 147.813 9.00922C147.28 9.57531 146.836 10.2285 146.525 10.9688C146.215 11.7091 146.037 12.5364 146.037 13.4509C146.037 14.3218 146.17 15.1492 146.481 15.8895C146.792 16.6297 147.191 17.2829 147.724 17.849C148.257 18.4151 148.878 18.807 149.633 19.1119C150.344 19.4167 151.143 19.5909 152.031 19.5909C152.919 19.5909 153.673 19.4167 154.428 19.1119C155.183 18.807 155.805 18.3716 156.337 17.8055C156.87 17.2394 157.314 16.5862 157.625 15.8459C157.98 15.0621 158.158 14.2783 158.158 13.4074Z" fill="white"/>
<path d="M182.31 9.74983C181.733 8.966 180.978 8.35636 180.09 7.87735C179.202 7.39835 178.225 7.18062 177.293 7.18062C176.494 7.18062 175.739 7.3548 174.984 7.65963C174.274 8.00799 173.608 8.44345 173.075 9.00955C172.542 9.57564 172.098 10.2288 171.787 11.0127C171.477 11.7529 171.299 12.5803 171.299 13.4077C171.299 14.2351 171.477 15.0624 171.787 15.8027C172.098 16.543 172.542 17.1962 173.075 17.7623C173.608 18.3284 174.274 18.7638 174.984 19.0686C175.739 19.3735 176.538 19.5477 177.382 19.5477C178.358 19.5477 179.246 19.3299 180.09 18.938C180.933 18.5025 181.688 17.8929 182.265 17.0655L185.24 19.9396C183.065 22.4217 180.445 23.6845 177.293 23.6845C175.828 23.6845 174.407 23.4232 173.119 22.9007C171.832 22.3781 170.722 21.6379 169.745 20.7234C168.768 19.8089 168.014 18.7203 167.481 17.4574C166.948 16.1946 166.682 14.8882 166.682 13.4512C166.682 12.0142 166.948 10.6643 167.481 9.40146C168.014 8.13863 168.768 7.04998 169.701 6.09197C170.633 5.13396 171.787 4.39368 173.075 3.87113C174.363 3.30504 175.739 3.04376 177.204 3.04376C178.758 3.04376 180.223 3.34858 181.599 4.00177C182.976 4.65496 184.175 5.56942 185.24 6.78871L182.31 9.74983Z" fill="white"/>
<path d="M206.241 20.0699C205.398 21.1585 204.288 22.0294 202.822 22.6826C201.402 23.3358 199.848 23.6406 198.249 23.6406C196.829 23.6406 195.452 23.3794 194.209 22.8568C192.922 22.3343 191.812 21.594 190.835 20.636C189.858 19.678 189.103 18.5893 188.571 17.3265C188.038 16.0637 187.771 14.7573 187.771 13.3203C187.771 11.8832 188.038 10.5769 188.615 9.31404C189.192 8.09476 189.947 7.00611 190.924 6.0481C191.901 5.13364 193.055 4.39336 194.342 3.8708C195.63 3.34825 197.051 3.08698 198.516 3.08698C200.114 3.08698 201.624 3.3918 202.956 4.04499C204.288 4.65463 205.442 5.52555 206.374 6.6142C207.307 7.70284 208.017 8.96567 208.461 10.4462C208.949 11.9268 209.083 13.538 208.949 15.2363H192.788C192.966 15.8895 193.188 16.4556 193.588 16.9781C193.943 17.5007 194.387 17.9797 194.92 18.3716C195.452 18.7635 196.03 19.0683 196.696 19.286C197.361 19.5038 198.027 19.5909 198.738 19.5909C199.715 19.5909 200.647 19.3731 201.446 18.9812C202.245 18.5893 202.956 17.9797 203.577 17.2394L206.241 20.0699ZM204.066 11.5784C203.71 10.272 203 9.22695 201.979 8.39958C200.958 7.5722 199.759 7.18029 198.383 7.18029C197.051 7.18029 195.896 7.57221 194.875 8.35603C193.854 9.13986 193.144 10.2285 192.7 11.5784H204.066Z" fill="white"/>
<path d="M219.915 23.6841C222.196 23.6841 224.044 21.8709 224.044 19.6343C224.044 17.3977 222.196 15.5845 219.915 15.5845C217.635 15.5845 215.786 17.3977 215.786 19.6343C215.786 21.8709 217.635 23.6841 219.915 23.6841Z" fill="#FF0000"/>
</g>
<defs>
<clipPath id="clip0_172_586">
<rect width="128" height="28" fill="white" transform="translate(96 3)"/>
</clipPath>
</defs>
</svg>
