<svg width="256" height="538" viewBox="0 0 256 538" fill="none" xmlns="http://www.w3.org/2000/svg">
<g opacity="0.05">
<path d="M159.865 429.086C155.38 429.436 146.18 430.815 138.038 436.067C128.52 442.304 116.74 455.288 116.74 482.296C116.74 503.14 122.24 517.731 132.305 526.663C136.928 530.717 144.877 535.411 156.791 535.411C165.27 535.411 172.77 532.522 179.129 526.694L179.13 526.693C183.595 522.605 187.347 517.096 190.139 510.299L190.139 510.299C193.112 503.061 195.353 493.923 196.58 483.472C197.53 474.696 199.343 467.359 202.125 462.139C204.917 456.899 208.968 453.342 214.401 453.342C216.84 453.342 219.121 453.994 221.127 455.38C223.113 456.751 224.697 458.75 225.924 461.25C228.348 466.187 229.538 473.412 229.538 482.921C229.538 494.553 226.346 503.285 219.114 508.119L159.865 429.086ZM159.865 429.086L159.865 452.66C159.443 452.709 158.985 452.773 158.501 452.857C156.216 453.255 153.149 454.13 150.527 456.121C143.802 460.959 140.2 470.248 140.2 482.295C140.2 488.49 140.984 495.34 143.049 500.737C145.079 506.042 148.754 510.832 154.922 510.832C160.375 510.832 164.577 507.857 167.55 502.676C170.449 497.623 172.315 490.292 173.368 480.908L173.368 480.904C175.618 460.595 181.879 446.113 191.8 437.529C198.39 431.866 206.125 428.972 214.401 428.972C218.66 428.972 228.802 428.991 238.039 437.288L238.047 437.296L238.056 437.303C242.864 441.546 246.6 447.399 249.187 454.781C251.767 462.347 252.998 471.629 252.998 482.92C252.998 491.643 251.784 499.442 249.224 506.167C246.672 512.455 242.931 517.618 238.679 522.495C227.447 534.705 213.281 535.571 207.417 535.49L207.762 511.713C208.409 511.647 209.147 511.555 209.943 511.424C212.614 510.985 216.185 510.078 219.114 508.12L159.865 429.086Z" fill="#EC1C2C" stroke="#EC1C2C" stroke-width="5"/>
<path d="M148.991 369.528L151.491 369.528L151.491 367.028L151.491 345.575L175.573 345.575L175.573 367.028L175.573 369.528L178.073 369.528L252.997 369.528L252.997 393.69L178.073 393.69L175.573 393.69L175.573 396.19L175.573 417.852L151.491 417.852L151.491 396.19L151.491 393.69L148.991 393.69L140.421 393.69L117.025 369.528L148.991 369.528Z" fill="#EC1C2C" stroke="#EC1C2C" stroke-width="5"/>
<path d="M202.3 337.205C174.198 337.403 151.215 314.576 151.017 286.363L151.017 286.363C150.819 258.17 173.59 235.135 201.704 234.932M202.3 337.205L202.318 339.705L202.3 337.205ZM202.3 337.205C230.418 337.005 253.193 313.97 252.997 285.775C252.896 274.48 250.49 266.159 246.167 259.34C242.3 253.242 236.799 248.182 229.665 243.245L222.605 265.693C227.918 271.144 230.768 278.329 230.989 285.89L230.99 285.927L230.99 285.964C230.99 293.504 228.028 300.783 222.61 306.44L222.593 306.459L222.575 306.476C220.992 308.065 219.611 309.347 218.033 310.422C216.431 311.513 214.716 312.33 212.494 313.11L209.156 314.281L209.166 310.744L209.367 234.84C208.591 234.837 207.708 234.843 206.814 234.854C205.774 234.866 204.695 234.885 203.78 234.901C202.846 234.918 202.082 234.932 201.704 234.932M201.704 234.932C201.701 234.932 201.698 234.932 201.695 234.932L201.695 232.432L201.712 234.932C201.71 234.932 201.707 234.932 201.704 234.932ZM173.228 286.173L173.228 288.673L173.333 288.673C173.899 295.466 176.774 301.802 181.645 306.685L181.684 306.723L181.723 306.76C184.36 309.184 187.54 311.483 191.258 312.882L194.639 314.155L194.639 310.543L194.639 261.594L194.639 257.98L191.257 259.254C187.531 260.658 184.349 262.962 181.508 265.592L181.452 265.644L181.399 265.699C176.175 271.165 173.228 278.448 173.228 286.173Z" fill="#EC1C2C" stroke="#EC1C2C" stroke-width="5"/>
<path d="M252.996 113.664L252.996 137.821L243.239 137.821L237.972 137.821L241.302 141.901C248.448 150.659 252.996 161.983 252.996 174.273L252.996 174.282L252.996 174.291C253.194 202.486 230.418 225.523 202.3 225.721L202.3 225.721C174.201 225.92 151.219 203.098 151.017 174.889C151.019 162.368 155.376 151.053 162.706 142.115L166.057 138.03L160.773 138.03L113.001 138.03L113.001 113.864L252.996 113.664ZM224.051 155.808L224.126 155.732L222.37 153.97C216.907 148.489 209.619 145.528 201.905 145.528L201.868 145.528L201.832 145.529C194.17 145.755 186.903 148.698 181.438 154.177L181.42 154.196L181.401 154.215C176.177 159.68 173.229 166.964 173.229 174.688C173.229 182.418 176.182 189.722 181.646 195.201L181.682 195.238L181.72 195.273C187.289 200.411 194.326 203.654 202.148 203.435C209.848 203.426 217.121 200.463 222.575 194.993C228.041 189.515 230.991 182.21 230.991 174.481L230.991 174.444L230.99 174.408C230.789 167.564 228.435 161.028 224.051 155.808Z" fill="#EC1C2C" stroke="#EC1C2C" stroke-width="5"/>
<path d="M252.997 99.0908L151.223 99.0908L151.223 74.929L252.997 74.929L252.997 99.0908Z" fill="#EC1C2C" stroke="#EC1C2C" stroke-width="5"/>
<path d="M117.083 75.2581L117.083 75.2584C110.615 79.0936 108.468 87.4692 112.298 93.9622M117.083 75.2581L130.933 98.7613C124.469 102.595 116.125 100.452 112.298 93.9622M117.083 75.2581C123.547 71.424 131.891 73.5677 135.719 80.0575L135.719 80.0576M117.083 75.2581L135.719 80.0576M112.298 93.9622L110.145 95.2317L112.298 93.9622ZM135.719 80.0576C139.549 86.55 137.402 94.9246 130.933 98.7613L135.719 80.0576Z" fill="#EC1C2C" stroke="#EC1C2C" stroke-width="5"/>
<path d="M46.6805 191.587C58.4231 191.445 68.0995 183.533 77.4148 164.623L77.4148 164.623C85.838 147.526 90.8874 123.439 90.8874 96.8951C90.8874 70.3681 85.7502 46.6197 77.5494 29.4488L75.8409 25.8714L79.8054 25.8714L212.263 25.8714L212.761 25.8714L213.221 26.0624C214.028 26.397 214.684 26.9849 215.158 27.4779C215.672 28.0113 216.176 28.6515 216.655 29.3252C217.616 30.6756 218.606 32.3478 219.517 34.0199C221.336 37.3577 222.977 40.952 223.591 42.5409C223.591 42.5412 223.591 42.5414 223.591 42.5417L221.259 43.4423C223.072 48.132 224.538 53.1061 225.71 58.2275L46.6805 191.587ZM46.6805 191.587C38.4447 191.582 31.5892 187.596 25.8273 180.877C20.0251 174.11 15.4613 164.7 11.9666 154.303C4.97951 133.514 2.5 109.493 2.5 96.8939C2.5 88.0969 3.06991 79.5828 4.13295 71.5014L27.9101 71.5014C27.0989 79.3642 26.6538 87.9329 26.6538 96.8939C26.6538 115.786 28.6296 132.975 31.8699 145.516C33.4852 151.767 35.4502 157.005 37.7319 160.74C39.9251 164.33 42.8816 167.271 46.6925 167.271C50.5032 167.271 53.46 164.33 55.6537 160.74C57.9358 157.006 59.9015 151.768 61.5174 145.516C64.7589 132.975 66.736 115.786 66.736 96.8939C66.7359 73.2472 63.6392 52.191 58.7902 39.6036C57.0901 35.1863 54.5401 31.9952 52.3981 29.3148C51.9715 28.781 51.5611 28.2674 51.1768 27.7684C48.8477 24.7441 47.2414 22.0444 47.2414 17.8163L47.2414 17.6267C47.3464 9.37651 54.2488 2.58853 62.9363 2.50342L63.2924 2.49992L212.262 2.50353C220.903 2.50353 227.884 6.58872 233.517 12.6844C239.182 18.8133 243.36 26.8572 246.261 34.3612L246.261 34.3615C248.879 41.1308 250.914 48.3292 252.453 55.7275L227.687 55.7275L46.6805 191.587Z" fill="#EC1C2C" stroke="#EC1C2C" stroke-width="5"/>
</g>
</svg>
