<svg width="349" height="461" viewBox="0 0 349 461" fill="none" xmlns="http://www.w3.org/2000/svg">
<path fill-rule="evenodd" clip-rule="evenodd" d="M316.961 80.7239C334.543 80.7239 348.817 95.3725 348.994 113.513L349 113.515V113.859L348.994 382.99C348.994 417.376 316.378 437.861 288.834 448.542C274.741 454.011 259.69 458.081 244.298 461V407.255C253.506 405.141 262.45 402.493 270.885 399.224C276.16 397.182 296.023 387.733 297.985 382.992V143.996C266.385 159.141 222.992 168.502 174.768 168.502C126.543 168.502 82.5097 159.309 50.9952 143.729C16.5175 126.688 0.273146 108.079 0 84.2531C0 18.0926 128.693 0 174.768 0C192.201 0 209.038 1.23337 224.924 3.52283V55.3909C209.628 53.6 192.647 52.6029 174.768 52.6029C107.359 52.6029 52.7151 66.7705 52.7151 84.2465C52.7151 101.725 107.359 115.899 174.768 115.899C217.035 115.899 254.271 110.327 276.168 101.863C293.652 95.1101 298.833 80.7239 316.963 80.7239H316.961Z" fill="#F6F6F6"/>
</svg>
